<svg width="215" height="120" viewBox="0 0 215 120" fill="none" xmlns="http://www.w3.org/2000/svg">
<circle cx="50" cy="60" r="48" stroke="#1565C0" stroke-width="4"/>
<path d="M49.2709 61.8709C47.1917 58.5188 45.6834 55.7396 43.5938 50.5063C40.0604 41.6667 65.0834 33.6792 54.9375 18.3313C59.3354 28.9334 39.1521 35.4875 37.2771 44.3167C35.5625 52.4375 49.2604 61.8709 49.2709 61.8709Z" fill="#F44336"/>
<path d="M49.7459 45.9792C49.3459 51.2209 54.3896 54.0146 54.5354 57.8438C54.6521 60.9605 51.5209 63.5584 51.5209 63.5584C51.5209 63.5584 57.2042 62.4417 58.9771 57.6875C60.9459 52.4084 55.1563 48.7938 55.7521 44.5667C56.3084 40.5292 68.3167 33.0188 68.3167 33.0188C68.3167 33.0188 50.6479 34.1896 49.7459 45.9792Z" fill="#F44336"/>
<path d="M66.8417 62.198C70.4958 61.3771 73.5771 63.7042 73.5771 66.3855C73.5771 72.4292 65.2 78.1417 65.2 78.1417C65.2 78.1417 78.1688 76.5959 78.1688 66.673C78.1688 60.1105 71.8 58.4709 66.8417 62.198ZM60.6854 67.073C60.6854 67.073 64.7292 64.1917 65.8063 63.1105C55.8833 65.2167 33.2271 65.5001 33.2271 63.6709C33.2271 61.9855 40.5333 60.2584 40.5333 60.2584C40.5333 60.2584 24.3396 60.0251 24.3396 64.8021C24.3396 69.7813 45.5375 70.1376 60.6854 67.073Z" fill="#1565C0"/>
<path d="M58.1979 71.6063C48.8042 74.7293 31.5021 73.7313 36.6271 69.5376C34.1313 69.5376 30.4313 71.5438 30.4313 73.473C30.4313 77.3418 49.1438 80.3293 62.9938 74.6647L58.1979 71.6063Z" fill="#1565C0"/>
<path d="M38.9292 78.2063C35.5208 78.2063 33.3146 80.4021 33.3146 82.0021C33.3146 86.9834 53.6479 87.4855 61.7042 82.4292L56.5833 79.0292C50.5646 81.675 35.4458 82.0396 38.9292 78.2063Z" fill="#1565C0"/>
<path d="M75.5854 86.3167C75.5854 84.3667 73.3875 83.448 72.6 83.0084C77.2417 94.2021 26.1063 93.3334 26.1063 86.725C26.1063 85.223 29.8708 83.7521 33.35 84.448L30.3917 82.7C23.4583 81.6125 18.75 84.6605 18.75 87.1188C18.75 98.5834 75.5854 98.0313 75.5854 86.3167Z" fill="#1565C0"/>
<path d="M81.25 90.425C72.6125 98.9563 50.7104 102.065 28.6854 96.7938C50.7104 106.175 81.1458 100.892 81.25 90.425Z" fill="#1565C0"/>
<path d="M204.955 59.0875C205.128 48.435 202.728 35.7675 197.728 20.905L193.808 9.25L188.483 20.3325C188.198 20.925 187.873 21.505 187.533 22.0775C178.785 14.5675 167.435 10 155 10C127.385 10 105 32.385 105 60C105 87.615 127.385 110 155 110C182.615 110 205 87.615 205 60C205 59.6925 204.96 59.395 204.955 59.0875Z" fill="#8BC34A"/>
<path d="M193.462 81.395C185.655 92.15 171.835 92.7275 158.827 92.5H141.875H137.03C148.1 88.5175 154.687 87.57 161.415 84C174.085 77.3375 186.61 62.76 189.217 47.595C184.392 62.185 169.77 74.72 156.445 79.8175C147.315 83.3 130.825 86.68 130.825 86.68L130.157 86.3175C118.932 80.67 118.592 55.535 139 47.42C147.935 43.8625 156.482 45.8175 166.135 43.4375C176.44 40.9075 188.36 32.9175 193.21 22.5C198.64 39.1675 205.175 65.265 193.462 81.395ZM134.17 96.1125C133.465 96.9875 132.387 97.5 131.262 97.5C129.205 97.5 127.525 95.8075 127.525 93.75C127.525 91.6925 129.217 90 131.262 90C132.115 90 132.955 90.295 133.615 90.84C135.215 92.1375 135.465 94.5125 134.17 96.1125Z" fill="white"/>
</svg>
