<svg width="211" height="204" viewBox="0 0 211 204" fill="none" xmlns="http://www.w3.org/2000/svg">
<circle cx="100" cy="50" r="50" fill="#FFD600"/>
<path d="M70 80V20H130V80H70Z" fill="#FFD600"/>
<path d="M111.537 68.6396C112.979 70.9812 114.546 73.225 117.865 73.225C120.652 73.225 122.115 71.8396 122.115 69.9229C122.115 67.6291 120.602 66.8146 117.535 65.4791L115.854 64.7625C111.002 62.7041 107.775 60.125 107.775 54.6771C107.775 49.6562 111.619 45.8354 117.625 45.8354C121.902 45.8354 124.975 47.3166 127.192 51.1958L121.954 54.5437C120.802 52.4854 119.556 51.675 117.625 51.675C115.654 51.675 114.406 52.9187 114.406 54.5437C114.406 56.5521 115.656 57.3646 118.542 58.6083L120.223 59.325C125.942 61.7604 129.167 64.2479 129.167 69.8396C129.167 75.8646 124.408 79.1666 118.021 79.1666C111.773 79.1666 108.225 76.0312 106.25 72.15L111.537 68.6396ZM87.4 68.8104C88.4541 70.6979 90.0562 72.15 92.3604 72.15C94.5646 72.15 95.8333 71.2791 95.8333 67.8937V45.8333H102.777V68.9604C102.777 75.975 98.7083 79.1666 92.7666 79.1666C87.3979 79.1666 83.5229 75.5291 81.9437 72.15L87.4 68.8104Z" fill="#000001"/>
<circle cx="50" cy="144" r="48" fill="white" stroke="#4E7AB5" stroke-width="4"/>
<path d="M51 161.84C28.195 161.84 11 154.17 11 144C11 133.83 28.195 126.16 51 126.16C73.805 126.16 91 133.83 91 144C91 154.17 73.805 161.84 51 161.84ZM51 131.16C30.375 131.16 16 137.925 16 144C16 150.075 30.375 156.84 51 156.84C71.625 156.84 86 150.075 86 144C86 137.925 71.625 131.16 51 131.16Z" fill="#4E7AB5"/>
<path d="M36.135 179C34.385 179 32.795 178.595 31.4 177.79C29.125 176.48 27.485 174.16 26.66 171.075C24.435 162.76 28.03 148.705 35.825 135.27C44.96 119.555 57.03 109 65.87 109C67.62 109 69.21 109.405 70.605 110.21C72.875 111.515 74.515 113.835 75.34 116.915C77.565 125.235 73.97 139.29 66.17 152.725C57.05 168.44 44.98 179 36.135 179ZM65.87 114C60.1 114 49.125 122.335 40.15 137.785C33.1 149.935 29.62 162.795 31.49 169.785C31.975 171.58 32.78 172.815 33.89 173.455C38.745 176.245 51.52 168.005 61.845 150.21C68.9 138.055 72.38 125.195 70.51 118.205C70.025 116.415 69.22 115.18 68.115 114.545C67.475 114.18 66.74 114 65.87 114Z" fill="#4E7AB5"/>
<path d="M65.87 179C57.025 179 44.955 168.44 35.83 152.73C28.03 139.3 24.435 125.245 26.66 116.925C27.485 113.84 29.125 111.515 31.4 110.21C32.795 109.405 34.39 109 36.135 109C44.975 109 57.045 119.56 66.17 135.28C73.97 148.715 77.565 162.765 75.335 171.085C74.51 174.17 72.875 176.49 70.605 177.79C69.21 178.595 67.615 179 65.87 179ZM36.135 114C35.265 114 34.53 114.18 33.89 114.545C32.775 115.185 31.97 116.42 31.49 118.22C29.62 125.21 33.1 138.07 40.155 150.22C49.12 165.665 60.095 174 65.87 174C66.745 174 67.475 173.82 68.115 173.455C69.225 172.82 70.03 171.585 70.51 169.79C72.385 162.8 68.905 149.94 61.85 137.79C52.88 122.335 41.905 114 36.135 114Z" fill="#4E7AB5"/>
<path d="M56 144C56 146.765 53.765 149 51 149C48.235 149 46 146.765 46 144C46 141.235 48.235 139 51 139C53.765 139 56 141.235 56 144Z" fill="#8BB7F0"/>
<path d="M51 151.5C46.865 151.5 43.5 148.135 43.5 144C43.5 139.865 46.865 136.5 51 136.5C55.135 136.5 58.5 139.865 58.5 144C58.5 148.135 55.135 151.5 51 151.5ZM51 141.5C49.625 141.5 48.5 142.62 48.5 144C48.5 145.38 49.625 146.5 51 146.5C52.375 146.5 53.5 145.38 53.5 144C53.5 142.62 52.375 141.5 51 141.5Z" fill="#4E7AB5"/>
<path d="M138.435 162.75C138.435 164.82 136.758 166.5 134.685 166.5C132.613 166.5 130.935 164.82 130.935 162.75V127.75C130.935 126.118 131.992 124.672 133.547 124.175C135.11 123.68 136.802 124.25 137.745 125.582L179.687 184.843C192.542 175.773 201 160.838 201 144C201 116.5 178.5 94 151 94C123.5 94 101 116.5 101 144C101 171.5 123.5 194 151 194C158.98 194 166.515 192.057 173.225 188.695L138.435 139.54V162.75ZM163.435 125.25C163.435 123.18 165.113 121.5 167.185 121.5C169.258 121.5 170.935 123.18 170.935 125.25V159.85L163.435 149.283V125.25Z" fill="#212121"/>
</svg>
