<svg width="100" height="100" viewBox="0 0 100 100" fill="none" xmlns="http://www.w3.org/2000/svg">
<circle cx="50" cy="50" r="48" fill="white" stroke="black" stroke-width="4"/>
<path d="M36.9858 45.5653C36.9176 44.8778 36.625 44.3437 36.108 43.9631C35.5909 43.5824 34.8892 43.392 34.0028 43.392C33.4006 43.392 32.892 43.4773 32.4773 43.6477C32.0625 43.8125 31.7443 44.0426 31.5227 44.3381C31.3068 44.6335 31.1989 44.9688 31.1989 45.3438C31.1875 45.6562 31.2528 45.929 31.3949 46.1619C31.5426 46.3949 31.7443 46.5966 32 46.767C32.2557 46.9318 32.5511 47.0767 32.8864 47.2017C33.2216 47.321 33.5795 47.4233 33.9602 47.5085L35.5284 47.8835C36.2898 48.054 36.9886 48.2812 37.625 48.5653C38.2614 48.8494 38.8125 49.1989 39.2784 49.6136C39.7443 50.0284 40.1051 50.517 40.3608 51.0795C40.6222 51.642 40.7557 52.2869 40.7614 53.0142C40.7557 54.0824 40.483 55.0085 39.9432 55.7926C39.4091 56.571 38.6364 57.1761 37.625 57.608C36.6193 58.0341 35.4063 58.2472 33.9858 58.2472C32.5767 58.2472 31.3494 58.0312 30.304 57.5994C29.2642 57.1676 28.4517 56.5284 27.8665 55.6818C27.2869 54.8295 26.983 53.7756 26.9545 52.5199H30.5256C30.5653 53.1051 30.733 53.5937 31.0284 53.9858C31.3295 54.3722 31.7301 54.6648 32.2301 54.8636C32.7358 55.0568 33.3068 55.1534 33.9432 55.1534C34.5682 55.1534 35.1108 55.0625 35.571 54.8807C36.0369 54.6989 36.3977 54.446 36.6534 54.1222C36.9091 53.7983 37.0369 53.4261 37.0369 53.0057C37.0369 52.6136 36.9205 52.2841 36.6875 52.017C36.4602 51.75 36.125 51.5227 35.6818 51.3352C35.2443 51.1477 34.7074 50.9773 34.071 50.8239L32.1705 50.3466C30.6989 49.9886 29.5369 49.429 28.6847 48.6676C27.8324 47.9062 27.4091 46.8807 27.4148 45.5909C27.4091 44.5341 27.6903 43.6108 28.2585 42.821C28.8324 42.0312 29.6193 41.4148 30.6193 40.9716C31.6193 40.5284 32.7557 40.3068 34.0284 40.3068C35.3239 40.3068 36.4545 40.5284 37.4205 40.9716C38.392 41.4148 39.1477 42.0312 39.6875 42.821C40.2273 43.6108 40.5057 44.5256 40.5227 45.5653H36.9858ZM49.8317 51.9318H52.968L54.5447 53.9602L56.0959 55.767L59.0192 59.4318H55.576L53.5646 56.9602L52.5334 55.4943L49.8317 51.9318ZM59.2834 49.2727C59.2834 51.1761 58.9226 52.7955 58.201 54.1307C57.4851 55.4659 56.5078 56.4858 55.2692 57.1903C54.0362 57.8892 52.6499 58.2386 51.1101 58.2386C49.5589 58.2386 48.1669 57.8864 46.9339 57.1818C45.701 56.4773 44.7266 55.4574 44.0107 54.1222C43.2947 52.7869 42.9368 51.1705 42.9368 49.2727C42.9368 47.3693 43.2947 45.75 44.0107 44.4148C44.7266 43.0795 45.701 42.0625 46.9339 41.3636C48.1669 40.6591 49.5589 40.3068 51.1101 40.3068C52.6499 40.3068 54.0362 40.6591 55.2692 41.3636C56.5078 42.0625 57.4851 43.0795 58.201 44.4148C58.9226 45.75 59.2834 47.3693 59.2834 49.2727ZM55.5419 49.2727C55.5419 48.0398 55.3572 47 54.9879 46.1534C54.6243 45.3068 54.1101 44.6648 53.4453 44.2273C52.7805 43.7898 52.0021 43.571 51.1101 43.571C50.218 43.571 49.4396 43.7898 48.7749 44.2273C48.1101 44.6648 47.593 45.3068 47.2237 46.1534C46.8601 47 46.6783 48.0398 46.6783 49.2727C46.6783 50.5057 46.8601 51.5455 47.2237 52.392C47.593 53.2386 48.1101 53.8807 48.7749 54.3182C49.4396 54.7557 50.218 54.9744 51.1101 54.9744C52.0021 54.9744 52.7805 54.7557 53.4453 54.3182C54.1101 53.8807 54.6243 53.2386 54.9879 52.392C55.3572 51.5455 55.5419 50.5057 55.5419 49.2727ZM62.017 58V40.5455H65.7074V54.9574H73.1903V58H62.017Z" fill="black"/>
</svg>
